<mxfile host="65bd71144e">
    <diagram id="Rq7s_x43mT2xh-N6TT6e" name="Page-1">
        <mxGraphModel dx="441" dy="572" grid="1" gridSize="10" guides="1" tooltips="1" connect="1" arrows="1" fold="1" page="1" pageScale="1" pageWidth="850" pageHeight="1100" math="1" shadow="0">
            <root>
                <mxCell id="0"/>
                <mxCell id="1" parent="0"/>
                <mxCell id="59" value="" style="rounded=0;whiteSpace=wrap;html=1;fontSize=22;fillColor=none;dashed=1;" parent="1" vertex="1">
                    <mxGeometry x="100" y="20" width="520" height="350" as="geometry"/>
                </mxCell>
                <mxCell id="3" value="" style="triangle;whiteSpace=wrap;html=1;labelBackgroundColor=none;" parent="1" vertex="1">
                    <mxGeometry x="320" y="120" width="240" height="240" as="geometry"/>
                </mxCell>
                <mxCell id="8" value="$$R_{\text{in}}$$" style="pointerEvents=1;verticalLabelPosition=middle;shadow=0;dashed=0;align=left;html=1;verticalAlign=middle;shape=mxgraph.electrical.resistors.resistor_1;fontSize=18;direction=south;labelPosition=right;" parent="1" vertex="1">
                    <mxGeometry x="330" y="200" width="20" height="80" as="geometry"/>
                </mxCell>
                <mxCell id="22" style="edgeStyle=orthogonalEdgeStyle;rounded=0;html=1;exitX=0;exitY=0.5;exitDx=0;exitDy=0;exitPerimeter=0;fontSize=18;endArrow=oval;endFill=0;" parent="1" source="9" edge="1">
                    <mxGeometry relative="1" as="geometry">
                        <mxPoint x="760" y="240" as="targetPoint"/>
                    </mxGeometry>
                </mxCell>
                <mxCell id="31" style="edgeStyle=orthogonalEdgeStyle;rounded=0;html=1;exitX=1;exitY=0.5;exitDx=0;exitDy=0;exitPerimeter=0;entryX=0.5;entryY=0;entryDx=0;entryDy=0;entryPerimeter=0;fontSize=22;endArrow=none;endFill=0;" parent="1" source="9" target="25" edge="1">
                    <mxGeometry relative="1" as="geometry"/>
                </mxCell>
                <mxCell id="9" value="$$R_\text{out}$$" style="pointerEvents=1;verticalLabelPosition=top;shadow=0;dashed=0;align=center;html=1;verticalAlign=middle;shape=mxgraph.electrical.resistors.resistor_1;fontSize=18;direction=west;labelPosition=center;" parent="1" vertex="1">
                    <mxGeometry x="430" y="230" width="80" height="20" as="geometry"/>
                </mxCell>
                <mxCell id="23" style="edgeStyle=orthogonalEdgeStyle;rounded=0;html=1;exitX=0;exitY=0.5;exitDx=0;exitDy=0;exitPerimeter=0;fontSize=18;endArrow=none;endFill=0;entryX=0.5;entryY=0;entryDx=0;entryDy=0;entryPerimeter=0;" parent="1" source="13" target="18" edge="1">
                    <mxGeometry relative="1" as="geometry">
                        <mxPoint x="140" y="180" as="targetPoint"/>
                    </mxGeometry>
                </mxCell>
                <mxCell id="13" value="$$Z_1$$" style="pointerEvents=1;verticalLabelPosition=top;shadow=0;dashed=0;align=center;html=1;verticalAlign=middle;shape=mxgraph.electrical.resistors.resistor_1;fontSize=18;labelPosition=center;" parent="1" vertex="1">
                    <mxGeometry x="170" y="170" width="100" height="20" as="geometry"/>
                </mxCell>
                <mxCell id="16" style="edgeStyle=orthogonalEdgeStyle;html=1;exitX=0;exitY=0.5;exitDx=0;exitDy=0;exitPerimeter=0;fontSize=18;endArrow=oval;endFill=1;rounded=0;" parent="1" source="14" edge="1">
                    <mxGeometry relative="1" as="geometry">
                        <mxPoint x="280" y="180" as="targetPoint"/>
                    </mxGeometry>
                </mxCell>
                <mxCell id="24" style="edgeStyle=orthogonalEdgeStyle;rounded=0;html=1;exitX=1;exitY=0.5;exitDx=0;exitDy=0;exitPerimeter=0;fontSize=18;endArrow=oval;endFill=1;" parent="1" source="14" edge="1">
                    <mxGeometry relative="1" as="geometry">
                        <mxPoint x="580" y="240" as="targetPoint"/>
                    </mxGeometry>
                </mxCell>
                <mxCell id="14" value="$$Z_2$$" style="pointerEvents=1;verticalLabelPosition=top;shadow=0;dashed=0;align=center;html=1;verticalAlign=middle;shape=mxgraph.electrical.resistors.resistor_1;fontSize=18;labelPosition=center;" parent="1" vertex="1">
                    <mxGeometry x="350" y="70" width="100" height="20" as="geometry"/>
                </mxCell>
                <mxCell id="18" value="" style="pointerEvents=1;verticalLabelPosition=bottom;shadow=0;dashed=0;align=center;html=1;verticalAlign=top;shape=mxgraph.electrical.signal_sources.signal_ground;fontSize=18;" parent="1" vertex="1">
                    <mxGeometry x="120" y="210" width="40" height="30" as="geometry"/>
                </mxCell>
                <mxCell id="20" value="" style="pointerEvents=1;verticalLabelPosition=bottom;shadow=0;dashed=0;align=center;html=1;verticalAlign=top;shape=mxgraph.electrical.signal_sources.signal_ground;fontSize=18;" parent="1" vertex="1">
                    <mxGeometry x="400" y="330" width="40" height="30" as="geometry"/>
                </mxCell>
                <mxCell id="32" style="edgeStyle=orthogonalEdgeStyle;rounded=0;html=1;exitX=0.5;exitY=1;exitDx=0;exitDy=0;exitPerimeter=0;entryX=0.5;entryY=0;entryDx=0;entryDy=0;entryPerimeter=0;fontSize=22;endArrow=none;endFill=0;" parent="1" source="25" target="20" edge="1">
                    <mxGeometry relative="1" as="geometry"/>
                </mxCell>
                <mxCell id="25" value="$$AV$$" style="pointerEvents=1;verticalLabelPosition=middle;shadow=0;dashed=0;align=left;html=1;verticalAlign=middle;shape=mxgraph.electrical.signal_sources.source;aspect=fixed;points=[[0.5,0,0],[1,0.5,0],[0.5,1,0],[0,0.5,0]];elSignalType=ac;fontSize=18;labelPosition=right;" parent="1" vertex="1">
                    <mxGeometry x="400" y="260" width="40" height="40" as="geometry"/>
                </mxCell>
                <mxCell id="27" value="" style="edgeStyle=orthogonalEdgeStyle;rounded=0;html=1;exitX=1;exitY=0.5;exitDx=0;exitDy=0;exitPerimeter=0;fontSize=18;endArrow=oval;endFill=0;" parent="1" source="8" edge="1">
                    <mxGeometry relative="1" as="geometry">
                        <mxPoint x="340" y="280" as="sourcePoint"/>
                        <mxPoint x="240" y="300" as="targetPoint"/>
                        <Array as="points">
                            <mxPoint x="340" y="300"/>
                            <mxPoint x="280" y="300"/>
                        </Array>
                    </mxGeometry>
                </mxCell>
                <mxCell id="11" value="+" style="text;html=1;strokeColor=none;fillColor=none;align=center;verticalAlign=middle;whiteSpace=wrap;rounded=0;fontSize=22;labelPosition=center;verticalLabelPosition=middle;" parent="1" vertex="1">
                    <mxGeometry x="300" y="280" width="20" height="20" as="geometry"/>
                </mxCell>
                <mxCell id="28" value="" style="edgeStyle=orthogonalEdgeStyle;rounded=0;html=1;exitX=0;exitY=0.5;exitDx=0;exitDy=0;exitPerimeter=0;entryX=1;entryY=0.5;entryDx=0;entryDy=0;entryPerimeter=0;fontSize=18;endArrow=none;endFill=0;" parent="1" source="8" target="13" edge="1">
                    <mxGeometry relative="1" as="geometry">
                        <mxPoint x="340" y="200" as="sourcePoint"/>
                        <mxPoint x="270" y="180" as="targetPoint"/>
                        <Array as="points">
                            <mxPoint x="340" y="180"/>
                        </Array>
                    </mxGeometry>
                </mxCell>
                <mxCell id="10" value="-" style="text;html=1;strokeColor=none;fillColor=none;align=center;verticalAlign=middle;whiteSpace=wrap;rounded=0;fontSize=22;labelPosition=center;verticalLabelPosition=middle;" parent="1" vertex="1">
                    <mxGeometry x="300" y="180" width="20" height="20" as="geometry"/>
                </mxCell>
                <mxCell id="33" value="" style="endArrow=classic;html=1;fontSize=22;curved=1;" parent="1" edge="1">
                    <mxGeometry width="50" height="50" relative="1" as="geometry">
                        <mxPoint x="290" y="195" as="sourcePoint"/>
                        <mxPoint x="290" y="285" as="targetPoint"/>
                        <Array as="points">
                            <mxPoint x="260" y="235"/>
                        </Array>
                    </mxGeometry>
                </mxCell>
                <mxCell id="34" value="$$V$$" style="edgeLabel;html=1;align=center;verticalAlign=middle;resizable=0;points=[];fontSize=22;fontColor=default;labelBackgroundColor=none;" parent="33" vertex="1" connectable="0">
                    <mxGeometry x="0.1133" y="6" relative="1" as="geometry">
                        <mxPoint x="-10" as="offset"/>
                    </mxGeometry>
                </mxCell>
                <mxCell id="36" value="$$v_o$$" style="text;html=1;strokeColor=none;fillColor=none;align=center;verticalAlign=middle;whiteSpace=wrap;rounded=0;labelBackgroundColor=none;fontSize=22;fontColor=default;" parent="1" vertex="1">
                    <mxGeometry x="740" y="210" width="40" height="30" as="geometry"/>
                </mxCell>
                <mxCell id="37" value="" style="endArrow=classic;html=1;" parent="1" edge="1">
                    <mxGeometry width="50" height="50" relative="1" as="geometry">
                        <mxPoint x="310" y="320" as="sourcePoint"/>
                        <mxPoint x="270" y="320" as="targetPoint"/>
                    </mxGeometry>
                </mxCell>
                <mxCell id="39" value="$$i_1$$" style="edgeLabel;html=1;align=center;verticalAlign=middle;resizable=0;points=[];fontSize=22;labelBackgroundColor=none;labelPosition=center;verticalLabelPosition=top;" parent="37" vertex="1" connectable="0">
                    <mxGeometry x="-0.3444" y="6" relative="1" as="geometry">
                        <mxPoint x="-7" y="7" as="offset"/>
                    </mxGeometry>
                </mxCell>
                <mxCell id="41" value="" style="endArrow=classic;html=1;" parent="1" edge="1">
                    <mxGeometry width="50" height="50" relative="1" as="geometry">
                        <mxPoint x="280" y="70" as="sourcePoint"/>
                        <mxPoint x="320" y="70" as="targetPoint"/>
                    </mxGeometry>
                </mxCell>
                <mxCell id="42" value="$$i_2$$" style="edgeLabel;html=1;align=center;verticalAlign=middle;resizable=0;points=[];fontSize=22;labelBackgroundColor=none;labelPosition=center;verticalLabelPosition=top;" parent="41" vertex="1" connectable="0">
                    <mxGeometry x="-0.3444" y="6" relative="1" as="geometry">
                        <mxPoint x="7" y="-14" as="offset"/>
                    </mxGeometry>
                </mxCell>
                <mxCell id="43" value="" style="endArrow=classic;html=1;" parent="1" edge="1">
                    <mxGeometry width="50" height="50" relative="1" as="geometry">
                        <mxPoint x="510" y="250" as="sourcePoint"/>
                        <mxPoint x="550" y="249.99999999999994" as="targetPoint"/>
                    </mxGeometry>
                </mxCell>
                <mxCell id="44" value="$$i_3$$" style="edgeLabel;html=1;align=center;verticalAlign=middle;resizable=0;points=[];fontSize=22;labelBackgroundColor=none;labelPosition=center;verticalLabelPosition=bottom;" parent="43" vertex="1" connectable="0">
                    <mxGeometry x="-0.3444" y="6" relative="1" as="geometry">
                        <mxPoint x="10" y="26" as="offset"/>
                    </mxGeometry>
                </mxCell>
                <mxCell id="45" value="$$v_i$$" style="text;html=1;strokeColor=none;fillColor=none;align=center;verticalAlign=middle;whiteSpace=wrap;rounded=0;labelBackgroundColor=none;fontSize=22;fontColor=default;" parent="1" vertex="1">
                    <mxGeometry x="220" y="270" width="40" height="30" as="geometry"/>
                </mxCell>
                <mxCell id="49" style="edgeStyle=orthogonalEdgeStyle;html=1;exitX=1;exitY=0.5;exitDx=0;exitDy=0;exitPerimeter=0;endArrow=oval;endFill=1;rounded=0;" parent="1" source="46" edge="1">
                    <mxGeometry relative="1" as="geometry">
                        <mxPoint x="720" y="240" as="targetPoint"/>
                    </mxGeometry>
                </mxCell>
                <mxCell id="46" value="$$R$$" style="pointerEvents=1;verticalLabelPosition=bottom;shadow=0;dashed=0;align=center;html=1;verticalAlign=top;shape=mxgraph.electrical.resistors.resistor_2;fontSize=22;labelPosition=center;" parent="1" vertex="1">
                    <mxGeometry x="570" y="390" width="100" height="20" as="geometry"/>
                </mxCell>
                <mxCell id="48" style="edgeStyle=orthogonalEdgeStyle;html=1;exitX=1;exitY=0.5;exitDx=0;exitDy=0;exitPerimeter=0;entryX=0;entryY=0.5;entryDx=0;entryDy=0;entryPerimeter=0;endArrow=none;endFill=0;" parent="1" source="47" target="46" edge="1">
                    <mxGeometry relative="1" as="geometry"/>
                </mxCell>
                <mxCell id="56" style="edgeStyle=orthogonalEdgeStyle;rounded=0;html=1;exitX=0;exitY=0.5;exitDx=0;exitDy=0;exitPerimeter=0;endArrow=oval;endFill=1;" parent="1" source="47" edge="1">
                    <mxGeometry relative="1" as="geometry">
                        <mxPoint x="360" y="440" as="targetPoint"/>
                    </mxGeometry>
                </mxCell>
                <mxCell id="47" value="$$C$$" style="pointerEvents=1;verticalLabelPosition=bottom;shadow=0;dashed=0;align=center;html=1;verticalAlign=top;shape=mxgraph.electrical.capacitors.capacitor_1;fontSize=22;labelPosition=center;" parent="1" vertex="1">
                    <mxGeometry x="450" y="380" width="100" height="40" as="geometry"/>
                </mxCell>
                <mxCell id="53" style="edgeStyle=orthogonalEdgeStyle;rounded=0;html=1;exitX=0;exitY=0.25;exitDx=0;exitDy=0;exitPerimeter=0;entryX=0;entryY=0.5;entryDx=0;entryDy=0;entryPerimeter=0;endArrow=none;endFill=0;" parent="1" source="51" target="52" edge="1">
                    <mxGeometry relative="1" as="geometry"/>
                </mxCell>
                <mxCell id="54" style="edgeStyle=orthogonalEdgeStyle;rounded=0;html=1;exitX=1;exitY=0.25;exitDx=0;exitDy=0;exitPerimeter=0;entryX=1;entryY=0.5;entryDx=0;entryDy=0;entryPerimeter=0;endArrow=none;endFill=0;" parent="1" source="51" target="52" edge="1">
                    <mxGeometry relative="1" as="geometry">
                        <Array as="points">
                            <mxPoint x="320" y="600"/>
                            <mxPoint x="400" y="600"/>
                        </Array>
                    </mxGeometry>
                </mxCell>
                <mxCell id="55" style="edgeStyle=orthogonalEdgeStyle;rounded=0;html=1;exitX=0.5;exitY=1;exitDx=0;exitDy=0;exitPerimeter=0;endArrow=oval;endFill=0;" parent="1" source="51" edge="1">
                    <mxGeometry relative="1" as="geometry">
                        <mxPoint x="240" y="500" as="targetPoint"/>
                    </mxGeometry>
                </mxCell>
                <mxCell id="51" value="$$R$$" style="pointerEvents=1;verticalLabelPosition=middle;shadow=0;dashed=0;align=left;html=1;verticalAlign=middle;shape=mxgraph.electrical.resistors.potentiometer_2;direction=south;fontSize=22;labelPosition=right;" parent="1" vertex="1">
                    <mxGeometry x="290" y="450" width="40" height="100" as="geometry"/>
                </mxCell>
                <mxCell id="52" value="$$C$$" style="pointerEvents=1;verticalLabelPosition=middle;shadow=0;dashed=0;align=left;html=1;verticalAlign=middle;shape=mxgraph.electrical.capacitors.capacitor_1;direction=south;fontSize=22;labelPosition=right;" parent="1" vertex="1">
                    <mxGeometry x="380" y="450" width="40" height="100" as="geometry"/>
                </mxCell>
                <mxCell id="58" style="edgeStyle=orthogonalEdgeStyle;rounded=0;html=1;exitX=0.5;exitY=0;exitDx=0;exitDy=0;exitPerimeter=0;endArrow=oval;endFill=1;" parent="1" source="57" edge="1">
                    <mxGeometry relative="1" as="geometry">
                        <mxPoint x="360" y="600" as="targetPoint"/>
                    </mxGeometry>
                </mxCell>
                <mxCell id="57" value="" style="pointerEvents=1;verticalLabelPosition=bottom;shadow=0;dashed=0;align=center;html=1;verticalAlign=top;shape=mxgraph.electrical.signal_sources.signal_ground;fontSize=18;" parent="1" vertex="1">
                    <mxGeometry x="340" y="610" width="40" height="30" as="geometry"/>
                </mxCell>
                <mxCell id="60" value="" style="endArrow=classic;html=1;" edge="1" parent="1">
                    <mxGeometry width="50" height="50" relative="1" as="geometry">
                        <mxPoint x="309.76" y="550" as="sourcePoint"/>
                        <mxPoint x="309.76" y="590" as="targetPoint"/>
                    </mxGeometry>
                </mxCell>
                <mxCell id="61" value="$$I_1$$" style="edgeLabel;html=1;align=center;verticalAlign=middle;resizable=0;points=[];fontSize=22;labelBackgroundColor=none;labelPosition=center;verticalLabelPosition=top;" vertex="1" connectable="0" parent="60">
                    <mxGeometry x="-0.3444" y="6" relative="1" as="geometry">
                        <mxPoint x="-26" y="7" as="offset"/>
                    </mxGeometry>
                </mxCell>
                <mxCell id="62" value="" style="endArrow=classic;html=1;" edge="1" parent="1">
                    <mxGeometry width="50" height="50" relative="1" as="geometry">
                        <mxPoint x="410" y="550" as="sourcePoint"/>
                        <mxPoint x="410" y="590" as="targetPoint"/>
                    </mxGeometry>
                </mxCell>
                <mxCell id="63" value="$$I_2$$" style="edgeLabel;html=1;align=center;verticalAlign=middle;resizable=0;points=[];fontSize=22;labelBackgroundColor=none;labelPosition=center;verticalLabelPosition=top;" vertex="1" connectable="0" parent="62">
                    <mxGeometry x="-0.3444" y="6" relative="1" as="geometry">
                        <mxPoint x="14" y="7" as="offset"/>
                    </mxGeometry>
                </mxCell>
                <mxCell id="64" value="$$v_{fb}$$" style="text;html=1;strokeColor=none;fillColor=none;align=center;verticalAlign=middle;whiteSpace=wrap;rounded=0;labelBackgroundColor=none;fontSize=22;fontColor=default;" vertex="1" parent="1">
                    <mxGeometry x="220" y="500" width="40" height="30" as="geometry"/>
                </mxCell>
                <mxCell id="66" value="" style="endArrow=none;html=1;dashed=1;dashPattern=12 12;" edge="1" parent="1">
                    <mxGeometry width="50" height="50" relative="1" as="geometry">
                        <mxPoint x="240" y="300" as="sourcePoint"/>
                        <mxPoint x="240" y="500" as="targetPoint"/>
                    </mxGeometry>
                </mxCell>
            </root>
        </mxGraphModel>
    </diagram>
</mxfile>